# xmcd
#
# Track frame offsets: 
#        150
#        3875
#        25260
#        40935
#        59120
#        79897
#        100500
#        119112
#        141325
#        162767
#        183745
#
# Disc length: 2639 seconds
#
# Revision: 4
# Processed by: cddbd v1.5.2PL0 Copyright (c) Steve Scherf et al.
# Submitted via: ExactAudioCopy v0.99pb4
#
DISCID=950a4d0b
DTITLE=La Esperanza - Esperanza II
DYEAR=2001
DGENRE=Flamenco
TTITLE0=La Sombra
TTITLE1=Mi Tierra
TTITLE2=Esta Noche
TTITLE3=Brande Nicole
TTITLE4=Rio
TTITLE5=Marina
TTITLE6=Mysterioso
TTITLE7=Azul Tropical
TTITLE8=Recuerdos
TTITLE9=Foreign Affair
TTITLE10=Goodnight
EXTD=
EXTT0=
EXTT1=
EXTT2=
EXTT3=
EXTT4=
EXTT5=
EXTT6=
EXTT7=
EXTT8=
EXTT9=
EXTT10=
PLAYORDER=
